# xmcd
#
# Track frame offsets:
#       150
#       12614
#       22449
#       32452
#       41862
#       52084
#       63091
#       73971
#       84084
#       92349
#       103281
#       115950
#       124089
#       136468
#       147681
#       159638
#       171786
#       182801
#       192744
#       202104
#       213554
#       222125
#       231029
#       242778
#       251959
#       262308
#       274167
#       284379
#       295123
#       305886
#
# Disc length: 4273 seconds
#
# Revision: 0
# Processed by: cddbd v1.4PL0 Copyright (c) Steve Scherf et al.
# Submitted via: WhereIsIt 3.26
#
DISCID=f010af1e
DTITLE=Johnny Cash - the very best of the sun years
DYEAR=1900
DGENRE=
TTITLE0=I walk the line
TTITLE1=rock island line
TTITLE2=hey porter
TTITLE3=new mexico
TTITLE4=straight a's in love
TTITLE5=cry cry cry
TTITLE6=I heard that lonesome whistle blow
TTITLE7=get rhythm
TTITLE8=guess things happen that way
TTITLE9=fool's hall of fame
TTITLE10=folsom prison blues
TTITLE11=wreck of the old '97
TTITLE12=next in line
TTITLE13=don't make me go
TTITLE14=home of the blues
TTITLE15=give my love to rose
TTITLE16=wide open road
TTITLE17=ballad of a teenage queen
TTITLE18=luther played the boogie
TTITLE19=big river
TTITLE20=I forgot to remember to forget
TTITLE21=katy too
TTITLE22=so doggone lonesome
TTITLE23=I couldn't keep from crying
TTITLE24=there you go
TTITLE25=thanks a lot
TTITLE26=the ways of a woman in love
TTITLE27=train of love
TTITLE28=I just thought you'd like to know
TTITLE29=goodnight irene
EXTD=
EXTT0=
EXTT1=
EXTT2=
EXTT3=
EXTT4=
EXTT5=
EXTT6=
EXTT7=
EXTT8=
EXTT9=
EXTT10=
EXTT11=
EXTT12=
EXTT13=
EXTT14=
EXTT15=
EXTT16=
EXTT17=
EXTT18=
EXTT19=
EXTT20=
EXTT21=
EXTT22=
EXTT23=
EXTT24=
EXTT25=
EXTT26=
EXTT27=
EXTT28=
EXTT29=
PLAYORDER=
